<?xml version="1.0" encoding="UTF-8"?> <!-- Generator: Adobe Illustrator 23.0.4, SVG Export Plug-In . SVG Version: 6.00 Build 0) --> <svg xmlns="http://www.w3.org/2000/svg" xmlns:xlink="http://www.w3.org/1999/xlink" version="1.1" id="Ebene_1" x="0px" y="0px" viewBox="0 0 304.09 153.07" style="enable-background:new 0 0 304.09 153.07;" xml:space="preserve"> <style type="text/css"> .st0{fill:#CEB48C;} .st1{fill:#FFFFFF;} </style> <polygon class="st0" points="112.05,62.12 112.05,45.3 114.45,45.3 114.45,52.51 118.66,52.51 118.66,45.3 121.06,45.3 121.06,62.12 118.66,62.12 118.66,54.31 114.45,54.31 114.45,62.12 "></polygon> <path class="st0" d="M126.17,59.56c0.32,0.51,0.91,0.76,1.75,0.76c0.85,0,1.43-0.25,1.75-0.76c0.32-0.51,0.48-1.26,0.48-2.24v-7.3 c0-0.98-0.16-1.7-0.48-2.19c-0.32-0.48-0.9-0.72-1.76-0.72c-0.85,0-1.44,0.24-1.76,0.72c-0.32,0.48-0.48,1.21-0.48,2.19v7.3 C125.69,58.31,125.85,59.05,126.17,59.56 M127.92,62.29c-0.85,0-1.57-0.13-2.17-0.38c-0.6-0.26-1.08-0.63-1.44-1.13 c-0.36-0.49-0.62-1.07-0.78-1.74c-0.16-0.67-0.24-1.44-0.24-2.32v-6.1c0-0.88,0.08-1.65,0.24-2.31c0.16-0.66,0.42-1.23,0.78-1.71 c0.36-0.49,0.84-0.85,1.44-1.09c0.6-0.24,1.33-0.37,2.17-0.37c1.64,0,2.82,0.47,3.55,1.41c0.73,0.94,1.09,2.3,1.09,4.07v6.1 c0,0.87-0.08,1.64-0.25,2.3c-0.17,0.67-0.43,1.25-0.78,1.75c-0.36,0.5-0.84,0.88-1.44,1.14C129.48,62.16,128.76,62.29,127.92,62.29"></path> <polygon class="st0" points="136.34,62.12 136.34,47.44 133.34,47.44 133.34,45.3 141.75,45.3 141.75,47.44 138.75,47.44 138.75,62.12 "></polygon> <polygon class="st0" points="143.77,62.12 143.77,45.3 150.38,45.3 150.38,47.1 146.17,47.1 146.17,52.51 149.17,52.51 149.17,54.31 146.17,54.31 146.17,60.32 150.38,60.32 150.38,62.12 "></polygon> <polygon class="st0" points="152.53,62.12 152.53,45.3 154.93,45.3 154.93,60.32 159.14,60.32 159.14,62.12 "></polygon> <path class="st0" d="M168.41,56.12h2.4l-1.2-7.21L168.41,56.12z M164.81,62.12l3.6-16.82h2.4l3.61,16.82h-2.4l-0.9-4.21h-3 l-0.9,4.21H164.81z"></path> <polygon class="st0" points="176.51,62.12 176.51,45.3 178.31,45.3 182.51,55.7 182.51,45.3 184.92,45.3 184.92,62.12 183.21,62.12 178.91,50.93 178.91,62.12 "></polygon> <path class="st0" d="M191.83,62.29c-1.51,0-2.67-0.44-3.47-1.33c-0.8-0.89-1.24-2.1-1.34-3.64l2.4-0.6c0.12,2.4,0.92,3.6,2.4,3.6 c1.2,0,1.8-0.6,1.8-1.8c0-0.36-0.05-0.69-0.15-0.99c-0.1-0.3-0.25-0.58-0.45-0.84c-0.2-0.25-0.38-0.46-0.55-0.61 c-0.16-0.15-0.38-0.34-0.67-0.57l-3-2.4c-0.55-0.43-0.99-0.98-1.32-1.65c-0.33-0.67-0.49-1.43-0.49-2.28c0-1.24,0.38-2.23,1.16-2.96 c0.77-0.73,1.79-1.1,3.06-1.1c1.36,0,2.45,0.33,3.25,1c0.8,0.67,1.3,1.61,1.49,2.83c0.02,0.13,0.04,0.31,0.07,0.54l-2.4,0.6 c-0.01-0.11-0.02-0.27-0.05-0.48c-0.11-0.76-0.35-1.37-0.72-1.84c-0.37-0.46-0.92-0.69-1.64-0.69c-0.58,0-1.02,0.16-1.33,0.48 c-0.31,0.32-0.47,0.77-0.47,1.35c0,0.95,0.4,1.74,1.2,2.38l3,2.4c1.6,1.3,2.4,2.84,2.4,4.65c0,1.23-0.38,2.2-1.14,2.89 C194.14,61.95,193.12,62.29,191.83,62.29"></path> <rect x="198.1" y="45.3" class="st0" width="2.4" height="16.82"></rect> <polygon class="st0" points="205.6,62.12 205.6,47.44 202.6,47.44 202.6,45.3 211.01,45.3 211.01,47.44 208.01,47.44 208.01,62.12 "></polygon> <polygon class="st0" points="211.81,62.12 211.81,60.32 217.22,47.1 212.41,47.1 212.41,45.3 219.62,45.3 219.62,47.1 214.21,60.32 219.62,60.32 219.62,62.12 "></polygon> <path class="st0" d="M114.72,77.73h0.67c0.61,0,1.11-0.03,1.49-0.1c0.39-0.07,0.73-0.2,1.03-0.39c0.3-0.19,0.51-0.47,0.64-0.82 c0.13-0.36,0.19-0.81,0.19-1.36c0-0.67-0.05-1.21-0.15-1.63c-0.1-0.42-0.28-0.76-0.54-1.02c-0.26-0.27-0.6-0.45-1.02-0.55 c-0.42-0.1-0.97-0.15-1.65-0.15h-0.67V77.73z M112.04,88.46V69.69h4.69c3.13,0,4.69,1.79,4.69,5.36c0,1.53-0.4,2.69-1.21,3.49 c-0.81,0.8-1.97,1.2-3.48,1.2h-2.01v8.71H112.04z"></path> <polygon class="st0" points="123.1,88.46 123.1,69.69 125.79,69.69 125.79,86.45 130.48,86.45 130.48,88.46 "></polygon> <path class="st0" d="M135.48,81.75h2.68l-1.34-8.04L135.48,81.75z M131.46,88.46l4.02-18.77h2.68l4.02,18.77h-2.68l-1.01-4.69h-3.35 l-1.01,4.69H131.46z"></path> <polygon class="st0" points="143.87,88.46 143.87,69.69 145.88,69.69 150.57,81.29 150.57,69.69 153.25,69.69 153.25,88.46 151.34,88.46 146.55,75.97 146.55,88.46 "></polygon> <polygon class="st0" points="158.19,88.46 158.19,72.08 154.84,72.08 154.84,69.69 164.22,69.69 164.22,72.08 160.87,72.08 160.87,88.46 "></polygon> <rect x="165.88" y="69.69" class="st0" width="2.68" height="18.77"></rect> <polygon class="st0" points="173.6,88.46 173.6,72.08 170.25,72.08 170.25,69.69 179.64,69.69 179.64,72.08 176.29,72.08 176.29,88.46 "></polygon> <path class="st0" d="M186.25,88.65c-1.69,0-2.98-0.5-3.87-1.49c-0.89-0.99-1.39-2.35-1.49-4.06l2.68-0.67 c0.13,2.68,1.03,4.02,2.68,4.02c1.34,0,2.01-0.67,2.01-2.01c0-0.4-0.05-0.77-0.16-1.11c-0.11-0.34-0.27-0.65-0.5-0.93 c-0.22-0.28-0.43-0.51-0.61-0.68c-0.18-0.17-0.43-0.38-0.74-0.63l-3.35-2.68c-0.61-0.48-1.11-1.09-1.47-1.84 c-0.37-0.74-0.55-1.59-0.55-2.54c0-1.38,0.43-2.48,1.29-3.3c0.86-0.82,2-1.23,3.41-1.23c1.52,0,2.73,0.37,3.63,1.12 c0.9,0.74,1.45,1.8,1.66,3.16c0.02,0.15,0.05,0.35,0.07,0.61l-2.68,0.67c-0.01-0.12-0.02-0.3-0.05-0.53 c-0.12-0.85-0.39-1.53-0.8-2.05c-0.42-0.51-1.03-0.77-1.83-0.77c-0.64,0-1.14,0.18-1.49,0.54c-0.35,0.36-0.52,0.86-0.52,1.5 c0,1.05,0.45,1.94,1.34,2.65l3.35,2.68c1.79,1.45,2.68,3.17,2.68,5.19c0,1.38-0.42,2.45-1.27,3.23S187.68,88.65,186.25,88.65"></path> <path class="st0" d="M197.8,88.65c-0.79,0-1.48-0.11-2.08-0.34c-0.6-0.22-1.09-0.53-1.48-0.93c-0.38-0.39-0.7-0.89-0.94-1.48 c-0.24-0.59-0.41-1.22-0.51-1.89c-0.1-0.67-0.15-1.43-0.15-2.27v-5.35c0-0.84,0.05-1.6,0.15-2.27c0.1-0.67,0.27-1.3,0.51-1.89 c0.24-0.59,0.55-1.08,0.94-1.47c0.38-0.39,0.88-0.7,1.48-0.92c0.6-0.22,1.3-0.34,2.08-0.34c0.87,0,1.63,0.13,2.26,0.39 c0.64,0.26,1.14,0.64,1.52,1.14c0.38,0.5,0.67,1.09,0.86,1.75c0.19,0.66,0.31,1.44,0.34,2.32c0.01,0.13,0.01,0.34,0.01,0.62h-2.68 v-0.6c-0.01-0.37-0.02-0.69-0.04-0.95c-0.02-0.26-0.06-0.53-0.12-0.81c-0.06-0.28-0.14-0.51-0.25-0.7 c-0.11-0.18-0.25-0.36-0.41-0.51c-0.16-0.16-0.37-0.27-0.62-0.35c-0.25-0.07-0.54-0.11-0.88-0.11c-0.43,0-0.81,0.07-1.12,0.21 c-0.31,0.14-0.55,0.32-0.73,0.54c-0.17,0.22-0.31,0.52-0.4,0.89c-0.09,0.37-0.16,0.73-0.18,1.08c-0.03,0.35-0.04,0.79-0.04,1.3v6.7 c0,0.45,0.02,0.85,0.06,1.22c0.04,0.36,0.11,0.72,0.23,1.08c0.11,0.36,0.26,0.66,0.43,0.91c0.18,0.25,0.42,0.44,0.71,0.59 c0.3,0.15,0.64,0.23,1.04,0.23c0.4,0,0.74-0.08,1.03-0.23c0.29-0.15,0.51-0.35,0.68-0.59c0.16-0.24,0.29-0.54,0.39-0.91 c0.09-0.37,0.16-0.73,0.18-1.08c0.03-0.35,0.04-0.75,0.04-1.22v-0.67h2.68v0.67c0,0.97-0.09,1.82-0.26,2.56 c-0.17,0.73-0.45,1.38-0.83,1.94c-0.38,0.56-0.9,0.99-1.55,1.28C199.51,88.5,198.72,88.65,197.8,88.65"></path> <polygon class="st0" points="204.61,88.46 204.61,69.69 207.3,69.69 207.3,77.73 211.99,77.73 211.99,69.69 214.67,69.69 214.67,88.46 211.99,88.46 211.99,79.74 207.3,79.74 207.3,88.46 "></polygon> <polygon class="st0" points="217.02,88.46 217.02,69.69 224.39,69.69 224.39,71.7 219.7,71.7 219.7,77.73 223.05,77.73 223.05,79.74 219.7,79.74 219.7,86.45 224.39,86.45 224.39,88.46 "></polygon> <path class="st0" d="M228.83,77.73h0.67c1.12,0,1.95-0.24,2.51-0.71c0.56-0.47,0.84-1.24,0.84-2.31c0-1.07-0.28-1.84-0.84-2.31 c-0.56-0.47-1.4-0.71-2.51-0.71h-0.67V77.73z M226.14,88.46V69.69h3.35c2,0,3.5,0.39,4.51,1.16c1.01,0.78,1.52,2.06,1.52,3.87 c0,1.12-0.2,2.05-0.6,2.81c-0.4,0.75-0.98,1.27-1.75,1.55l3.02,9.38h-2.66l-2.7-8.71h-2.01v8.71H226.14z"></path> <polygon class="st0" points="237.91,88.46 237.91,69.69 240.59,69.69 240.59,77.73 245.28,77.73 245.28,69.69 247.96,69.69 247.96,88.46 245.28,88.46 245.28,79.74 240.59,79.74 240.59,88.46 "></polygon> <path class="st0" d="M253.33,85.6c0.36,0.57,1.01,0.85,1.95,0.85s1.59-0.28,1.95-0.85c0.36-0.57,0.54-1.4,0.54-2.5v-8.15 c0-1.09-0.18-1.9-0.53-2.44c-0.36-0.54-1.01-0.81-1.96-0.81c-0.95,0-1.6,0.27-1.96,0.81c-0.36,0.54-0.53,1.35-0.53,2.44v8.15 C252.79,84.2,252.97,85.03,253.33,85.6 M255.29,88.65c-0.94,0-1.75-0.14-2.43-0.43c-0.67-0.29-1.21-0.71-1.61-1.26 c-0.4-0.55-0.69-1.2-0.87-1.94c-0.18-0.74-0.27-1.61-0.27-2.59v-6.81c0-0.98,0.09-1.84,0.27-2.58c0.18-0.73,0.47-1.37,0.87-1.91 c0.4-0.54,0.93-0.95,1.61-1.22c0.67-0.27,1.48-0.41,2.43-0.41c1.83,0,3.15,0.52,3.96,1.57s1.22,2.56,1.22,4.55v6.81 c0,0.97-0.09,1.83-0.28,2.57c-0.19,0.74-0.48,1.39-0.87,1.95c-0.4,0.56-0.93,0.98-1.61,1.27C257.03,88.5,256.22,88.65,255.29,88.65"></path> <polygon class="st0" points="262.61,69.69 262.61,88.46 265.29,88.46 265.29,79.74 268.65,79.74 268.65,77.73 265.29,77.73 265.29,71.7 269.99,71.7 269.99,69.69 "></polygon> <g> <polygon class="st1" points="112.13,107.31 112.13,98.03 113.97,98.03 115.28,105.14 116.6,98.03 118.43,98.03 118.43,107.31 117.1,107.31 117.1,99.99 115.78,107.31 114.78,107.31 113.46,99.99 113.46,107.31 "></polygon> <polygon class="st1" points="120.18,107.31 120.18,98.03 123.83,98.03 123.83,99.02 121.51,99.02 121.51,102.01 123.16,102.01 123.16,103 121.51,103 121.51,106.32 123.83,106.32 123.83,107.31 "></polygon> <path class="st1" d="M125.06,107.31v-9.28h1.66c0.99,0,1.73,0.19,2.23,0.58c0.5,0.38,0.75,1.02,0.75,1.91c0,0.55-0.1,1.02-0.3,1.39 c-0.2,0.37-0.48,0.63-0.87,0.77l1.49,4.64h-1.32l-1.34-4.31h-0.99v4.31H125.06z M126.39,102.01h0.33c0.55,0,0.97-0.12,1.24-0.35 c0.28-0.23,0.41-0.61,0.41-1.14c0-0.53-0.14-0.91-0.41-1.14c-0.28-0.23-0.69-0.35-1.24-0.35h-0.33V102.01z"></path> <path class="st1" d="M130.65,107.31l1.99-9.28h1.33l1.99,9.28h-1.33l-0.5-2.32h-1.66l-0.5,2.32H130.65z M132.64,104h1.33 l-0.66-3.98L132.64,104z"></path> <polygon class="st1" points="137.12,107.31 137.12,98.03 138.12,98.03 140.44,103.77 140.44,98.03 141.76,98.03 141.76,107.31 140.82,107.31 138.45,101.14 138.45,107.31 "></polygon> <path class="st1" d="M145.91,107.4c-0.47,0-0.87-0.07-1.2-0.21c-0.33-0.14-0.6-0.35-0.8-0.62c-0.2-0.27-0.34-0.59-0.43-0.96 c-0.09-0.37-0.13-0.79-0.13-1.28v-3.37c0-0.49,0.04-0.91,0.13-1.27c0.09-0.36,0.23-0.68,0.43-0.95c0.2-0.27,0.46-0.47,0.8-0.6 c0.33-0.13,0.73-0.2,1.2-0.2c0.9,0,1.56,0.26,1.96,0.78c0.4,0.52,0.6,1.27,0.6,2.25v3.37c0,0.48-0.05,0.9-0.14,1.27 c-0.09,0.37-0.24,0.69-0.43,0.96c-0.2,0.27-0.46,0.48-0.79,0.63C146.77,107.33,146.37,107.4,145.91,107.4 M144.94,105.9 c0.18,0.28,0.5,0.42,0.97,0.42c0.47,0,0.79-0.14,0.97-0.42c0.18-0.28,0.27-0.69,0.27-1.24v-4.03c0-0.54-0.09-0.94-0.26-1.21 c-0.18-0.27-0.5-0.4-0.97-0.4c-0.47,0-0.79,0.13-0.97,0.4c-0.18,0.27-0.26,0.67-0.26,1.21v4.03 C144.68,105.2,144.77,105.62,144.94,105.9"></path> <rect x="151.97" y="102.07" class="st1" width="1.99" height="0.99"></rect> <path class="st1" d="M157.04,107.31l1.99-9.28h1.33l1.99,9.28h-1.33l-0.5-2.32h-1.66l-0.5,2.32H157.04z M159.03,104h1.33 l-0.66-3.98L159.03,104z"></path> <polygon class="st1" points="163.52,107.31 163.52,98.03 164.85,98.03 164.85,106.32 167.17,106.32 167.17,107.31 "></polygon> <polygon class="st1" points="169.05,107.31 169.05,99.21 167.39,99.21 167.39,98.03 172.03,98.03 172.03,99.21 170.37,99.21 170.37,107.31 "></polygon> <path class="st1" d="M175.43,107.4c-0.47,0-0.87-0.07-1.2-0.21c-0.33-0.14-0.6-0.35-0.8-0.62c-0.2-0.27-0.34-0.59-0.43-0.96 c-0.09-0.37-0.13-0.79-0.13-1.28v-3.37c0-0.49,0.04-0.91,0.13-1.27c0.09-0.36,0.23-0.68,0.43-0.95c0.2-0.27,0.46-0.47,0.8-0.6 c0.33-0.13,0.73-0.2,1.2-0.2c0.9,0,1.56,0.26,1.96,0.78c0.4,0.52,0.6,1.27,0.6,2.25v3.37c0,0.48-0.05,0.9-0.14,1.27 c-0.09,0.37-0.24,0.69-0.43,0.96c-0.2,0.27-0.46,0.48-0.79,0.63C176.29,107.33,175.89,107.4,175.43,107.4 M174.47,105.9 c0.18,0.28,0.5,0.42,0.97,0.42c0.47,0,0.79-0.14,0.97-0.42c0.18-0.28,0.27-0.69,0.27-1.24v-4.03c0-0.54-0.09-0.94-0.26-1.21 c-0.18-0.27-0.5-0.4-0.97-0.4c-0.47,0-0.79,0.13-0.97,0.4c-0.18,0.27-0.26,0.67-0.26,1.21v4.03 C174.2,105.2,174.29,105.62,174.47,105.9"></path> <path class="st1" d="M181.58,107.31l1.99-9.28h1.33l1.99,9.28h-1.33l-0.5-2.32h-1.66l-0.5,2.32H181.58z M183.56,104h1.33 l-0.66-3.98L183.56,104z"></path> <path class="st1" d="M188.05,107.31v-9.28h2.06c0.97,0,1.66,0.2,2.05,0.6c0.4,0.4,0.6,1.08,0.6,2.06v3.65 c0,1.02-0.2,1.77-0.61,2.26c-0.41,0.49-1.09,0.73-2.05,0.73H188.05z M189.38,106.32h0.73c0.22,0,0.4-0.02,0.56-0.06 c0.16-0.04,0.28-0.11,0.38-0.22c0.1-0.11,0.17-0.21,0.23-0.3c0.06-0.1,0.09-0.24,0.12-0.44c0.02-0.2,0.04-0.37,0.04-0.5 c0-0.13,0.01-0.33,0.01-0.6V104v-2.98c0-0.17,0-0.3,0-0.4c0-0.1-0.01-0.22-0.02-0.35c-0.01-0.14-0.02-0.24-0.04-0.32 c-0.02-0.08-0.04-0.17-0.07-0.27c-0.03-0.1-0.07-0.17-0.12-0.23c-0.05-0.06-0.1-0.11-0.17-0.17c-0.07-0.06-0.14-0.1-0.23-0.13 c-0.09-0.03-0.19-0.05-0.31-0.07c-0.12-0.02-0.25-0.03-0.39-0.03h-0.7V106.32z"></path> <rect x="194.4" y="98.03" class="st1" width="1.33" height="9.28"></rect> <path class="st1" d="M200.06,107.4c-0.42,0-0.79-0.06-1.11-0.18c-0.31-0.12-0.57-0.29-0.76-0.49c-0.2-0.21-0.35-0.47-0.47-0.79 c-0.12-0.32-0.2-0.66-0.24-1.02c-0.04-0.36-0.07-0.76-0.07-1.23v-2.35c0-2.27,0.9-3.41,2.7-3.41c0.43,0,0.81,0.06,1.12,0.19 c0.32,0.13,0.57,0.32,0.77,0.57c0.2,0.25,0.35,0.54,0.45,0.87c0.1,0.33,0.16,0.72,0.18,1.16c0,0.06,0,0.16,0,0.28h-1.33v-0.28 c0-0.22-0.02-0.4-0.03-0.56c-0.02-0.16-0.05-0.31-0.1-0.46c-0.05-0.15-0.12-0.27-0.2-0.37c-0.09-0.1-0.2-0.17-0.34-0.23 c-0.14-0.06-0.31-0.09-0.51-0.09c-0.27,0-0.5,0.05-0.68,0.15c-0.18,0.1-0.33,0.24-0.42,0.43c-0.1,0.19-0.17,0.4-0.21,0.62 c-0.04,0.23-0.06,0.49-0.06,0.79V104c0,0.22,0.01,0.42,0.02,0.6c0.01,0.18,0.04,0.36,0.07,0.54c0.03,0.18,0.08,0.34,0.14,0.48 c0.06,0.13,0.14,0.26,0.24,0.36c0.1,0.11,0.21,0.19,0.36,0.25c0.14,0.06,0.31,0.09,0.49,0.09c0.22,0,0.41-0.04,0.57-0.13 c0.16-0.09,0.29-0.2,0.39-0.33s0.17-0.31,0.23-0.52c0.05-0.21,0.09-0.42,0.11-0.63c0.02-0.21,0.03-0.44,0.03-0.71v-0.33h-1.33 v-0.98h2.65v4.63h-0.99l-0.33-0.99C201.13,107.04,200.69,107.4,200.06,107.4"></path> <polygon class="st1" points="204.21,107.31 204.21,98.03 207.86,98.03 207.86,99.02 205.54,99.02 205.54,102.01 207.19,102.01 207.19,103 205.54,103 205.54,106.32 207.86,106.32 207.86,107.31 "></polygon> </g> <path d="M82.64,65.13"></path> <path d="M46.26,68.66"></path> <path class="st0" d="M48.94,80.91c-0.13,0.13-0.28,0.25-0.44,0.38c-0.08,0.06-0.17,0.13-0.27,0.19c-0.09,0.06-0.19,0.13-0.29,0.19 c-0.08,0.03-0.15,0.07-0.22,0.1c-0.01,0-0.02,0.01-0.03,0.01c-0.06,0.03-0.13,0.05-0.21,0.07c-0.07,0.02-0.13,0.04-0.2,0.06 c-0.07,0.02-0.14,0.03-0.21,0.04c-0.21,0.03-0.43,0.02-0.69-0.02c-0.12-0.02-0.23-0.04-0.34-0.08c-0.21-0.07-0.4-0.17-0.59-0.31 c-0.04-0.03-0.08-0.07-0.12-0.11c-0.02-0.02-0.04-0.03-0.06-0.05c-0.03-0.03-0.06-0.06-0.09-0.1c-0.02-0.03-0.05-0.05-0.07-0.08 c-0.02-0.03-0.05-0.06-0.07-0.09c-0.03-0.04-0.05-0.08-0.07-0.11c-0.02-0.02-0.03-0.05-0.05-0.07c-0.04-0.07-0.07-0.13-0.1-0.2 c-0.12-0.31-0.17-0.68-0.15-1.09c0.06-1.1,0.58-2.51,1.33-3.94c0.09-0.18,0.19-0.36,0.29-0.54c0.2-0.36,0.42-0.72,0.64-1.07 c0.22-0.35,0.46-0.7,0.69-1.04c0,0,0.12-0.16,0.32-0.45c0.08-0.12,0.18-0.25,0.29-0.41c0.33-0.46,0.77-1.09,1.29-1.82 c0.43-0.61,0.91-1.29,1.42-2c0.2-0.29,0.41-0.58,0.62-0.87c0.53-0.74,1.07-1.5,1.6-2.24c0.21-0.3,0.43-0.59,0.64-0.88 c0.21-0.29,0.42-0.58,0.62-0.86c0.3-0.42,0.6-0.82,0.87-1.2c0.67-0.9,1.39-1.88,2.13-2.88c0.32-0.43,0.64-0.87,0.97-1.31 c0.11-0.15,0.22-0.29,0.33-0.44c0.33-0.44,0.65-0.88,0.98-1.32c0.11-0.15,0.22-0.29,0.33-0.44c0.22-0.29,0.44-0.58,0.65-0.87 c0.22-0.29,0.43-0.57,0.64-0.85s0.42-0.56,0.63-0.83c0.63-0.82,1.23-1.6,1.8-2.3c0.47-0.59,0.92-1.13,1.32-1.61 c0.24-0.28,0.48-0.54,0.7-0.78c0.15-0.16,0.29-0.31,0.42-0.44c0.2-0.2,0.38-0.38,0.53-0.53c0.03-0.03,0.05-0.05,0.06-0.08 c0.03-0.06,0.04-0.13,0.04-0.2c-0.02-0.17-0.15-0.32-0.4-0.32c-0.17,0-0.34,0-0.51,0.01c-0.02,0-0.05,0-0.07,0 c-0.17,0.01-0.34,0.03-0.51,0.05c-0.19,0.02-0.38,0.05-0.57,0.09c-0.05,0.01-0.1,0.02-0.15,0.03c-0.09,0.02-0.18,0.04-0.27,0.06 c-0.06,0.01-0.12,0.03-0.19,0.05c-0.08,0.02-0.15,0.04-0.23,0.06c-0.07,0.02-0.13,0.04-0.2,0.06c-0.07,0.02-0.15,0.04-0.23,0.07 c-0.07,0.02-0.14,0.04-0.2,0.07c-0.08,0.02-0.15,0.05-0.23,0.08c-0.07,0.02-0.14,0.05-0.21,0.07c-0.08,0.03-0.15,0.06-0.23,0.09 c-0.07,0.03-0.14,0.05-0.2,0.08c-0.08,0.03-0.17,0.07-0.25,0.1c-0.06,0.03-0.13,0.05-0.19,0.08c-0.12,0.05-0.25,0.11-0.37,0.17 c-0.07,0.03-0.14,0.07-0.21,0.1c-0.1,0.04-0.19,0.09-0.29,0.13c-0.07,0.03-0.13,0.07-0.2,0.1c-0.08,0.04-0.16,0.08-0.25,0.12 c-0.07,0.04-0.14,0.07-0.21,0.11c-0.08,0.04-0.16,0.08-0.24,0.13c-0.07,0.04-0.14,0.08-0.21,0.12c-0.08,0.04-0.16,0.09-0.24,0.13 c-0.07,0.04-0.14,0.08-0.21,0.12c-0.08,0.05-0.17,0.1-0.25,0.14c-0.07,0.04-0.14,0.08-0.21,0.12c-0.09,0.05-0.18,0.11-0.27,0.16 c-0.06,0.04-0.12,0.07-0.18,0.11c-0.13,0.08-0.27,0.17-0.4,0.25c-0.06,0.04-0.11,0.07-0.17,0.11c-0.11,0.07-0.22,0.14-0.33,0.21 c-0.06,0.04-0.13,0.08-0.19,0.13c-0.09,0.06-0.18,0.12-0.27,0.18c-0.07,0.05-0.13,0.09-0.2,0.14c-0.08,0.06-0.17,0.12-0.25,0.18 c-0.07,0.05-0.14,0.09-0.2,0.14c-0.08,0.06-0.17,0.12-0.25,0.18c-0.07,0.05-0.13,0.09-0.2,0.14c-0.09,0.06-0.17,0.13-0.26,0.19 c-0.06,0.05-0.12,0.09-0.19,0.14c-0.1,0.07-0.19,0.14-0.29,0.21c-0.05,0.04-0.11,0.08-0.16,0.12c-0.15,0.11-0.29,0.22-0.44,0.33 c-0.01,0.01-0.03,0.02-0.04,0.03c-0.13,0.1-0.26,0.2-0.39,0.31c-0.05,0.04-0.1,0.08-0.16,0.12c-0.09,0.07-0.19,0.15-0.28,0.22 c-0.06,0.05-0.12,0.09-0.17,0.14c-0.09,0.07-0.17,0.14-0.26,0.21c-0.06,0.05-0.12,0.1-0.18,0.14c-0.09,0.07-0.17,0.14-0.26,0.21 c-0.06,0.05-0.11,0.09-0.17,0.14c-0.09,0.07-0.17,0.15-0.26,0.22c-0.05,0.04-0.1,0.09-0.16,0.13c-0.1,0.08-0.19,0.16-0.28,0.24 c-0.04,0.04-0.08,0.07-0.13,0.11c-0.14,0.12-0.27,0.23-0.4,0.35c-0.49,0.42-0.98,0.84-1.46,1.28c-1.28,1.15-2.53,2.33-3.72,3.49 c-0.3,0.29-0.59,0.58-0.87,0.87c-0.14,0.14-0.29,0.29-0.43,0.43c-0.28,0.29-0.56,0.57-0.83,0.85c-0.14,0.14-0.27,0.28-0.4,0.42 c-0.27,0.28-0.53,0.55-0.78,0.82c-0.25,0.27-0.5,0.53-0.75,0.79c-0.6,0.65-1.17,1.27-1.68,1.84c-0.1,0.12-0.2,0.23-0.3,0.34 c-0.49,0.56-0.94,1.07-1.32,1.53l-0.75,0.8c-0.59,0.63-1.17,1.24-1.74,1.86c-0.29,0.31-0.57,0.62-0.86,0.94 c-0.28,0.31-0.57,0.63-0.85,0.96c-0.37,0.43-0.77,0.86-1.2,1.3c-1.41,1.42-2.95,3.03-4.7,4.01c-1.8,1-4.02,1.62-6.03,0.91 c-0.93-0.33-1.75-0.95-2.33-1.74c-0.68-0.93-1-2.33-1-3.48l-0.78-0.06c0,1.68,0.38,3.26,1.59,4.5c1.32,1.35,3.3,1.9,5.15,1.75 c1.63-0.13,3.26-0.68,4.62-1.57c0.45-0.29,0.91-0.55,1.34-0.87c0.37-0.29,0.76-0.56,1.13-0.85c1.27-1.03,2.65-2.48,3.85-3.62 c0.2-0.19,0.4-0.38,0.59-0.58c0.2-0.19,0.39-0.38,0.58-0.58c0.69-0.69,1.65-1.63,2.28-2.25c0.38-0.37,0.63-0.61,0.63-0.61h4.33 c0.01-0.01,0.02-0.02,0.02-0.03c0,0,0.48-0.62,1.28-1.61h-4.21l1.38-1.59c0.07-0.08,0.14-0.15,0.21-0.23 c0.38-0.43,0.75-0.85,1.11-1.27c0.18-0.21,0.36-0.42,0.55-0.64c0.23-0.27,0.46-0.55,0.71-0.83c0,0,2.5-2.88,2.51-2.9 c0.15-0.18,0.31-0.35,0.46-0.52c0.05-0.06,0.11-0.12,0.16-0.18c0.11-0.12,0.21-0.24,0.32-0.35c0.06-0.07,0.13-0.14,0.19-0.2 c0.1-0.11,0.2-0.22,0.3-0.32c0.07-0.07,0.13-0.14,0.2-0.21c0.1-0.11,0.2-0.21,0.31-0.32c0.07-0.07,0.13-0.14,0.2-0.2 c0.11-0.11,0.22-0.22,0.33-0.33c0.06-0.06,0.12-0.12,0.18-0.18c0.17-0.16,0.33-0.33,0.5-0.49c0.04-0.04,0.09-0.08,0.13-0.12 c0.13-0.12,0.26-0.24,0.39-0.36c0.07-0.07,0.15-0.14,0.22-0.21c0.1-0.09,0.2-0.18,0.3-0.27c0.08-0.07,0.16-0.15,0.25-0.22 c0.09-0.08,0.18-0.16,0.28-0.25c0.09-0.08,0.17-0.15,0.26-0.23c0.09-0.08,0.18-0.15,0.26-0.23c0.09-0.08,0.18-0.15,0.27-0.23 c0.08-0.07,0.17-0.14,0.25-0.21c0.1-0.08,0.19-0.16,0.29-0.24c0.05-0.04,0.1-0.08,0.16-0.13c0.23-0.18,0.45-0.37,0.68-0.54 c0.06-0.04,0.11-0.09,0.17-0.14c0.11-0.09,0.23-0.17,0.34-0.26c0.06-0.05,0.12-0.09,0.19-0.14c0.11-0.09,0.23-0.17,0.34-0.26 c0.06-0.04,0.12-0.09,0.17-0.13c0.12-0.09,0.24-0.17,0.35-0.26c0.05-0.04,0.1-0.07,0.15-0.11c0.13-0.09,0.25-0.18,0.38-0.27 c0.02-0.02,0.05-0.03,0.07-0.05c0.62-0.42,1.22-0.82,1.82-1.18c0.02-0.01,0.04-0.02,0.06-0.03c0.14-0.08,0.28-0.17,0.42-0.25 c0.02-0.01,0.04-0.02,0.06-0.04c0.14-0.08,0.28-0.16,0.42-0.24c0.01-0.01,0.02-0.01,0.03-0.02c0.76-0.42,1.49-0.78,2.2-1.08 c0.14-0.06,0.27-0.11,0.43-0.17c0.13-0.05,0.27-0.1,0.4-0.15c0.74-0.26,1.42-0.44,2.05-0.52c-0.05,0.04-0.1,0.07-0.16,0.12 c-0.04,0.03-0.09,0.07-0.13,0.11c-0.01,0.01-0.02,0.02-0.03,0.02c-0.11,0.09-0.24,0.2-0.37,0.31c-2.02,1.75-6.04,5.99-10.3,10.73 c-4.16,4.52-8.13,9.64-8.13,9.64c-2.24,2.73-4.18,7.24-3.09,10.79c0,0.01,0.01,0.03,0.01,0.04c0.01,0.02,0.01,0.04,0.02,0.06 c0.03,0.11,0.07,0.22,0.11,0.33c0.01,0.03,0.02,0.06,0.03,0.09c0.03,0.08,0.06,0.16,0.1,0.24c0.01,0.03,0.02,0.06,0.04,0.08 c0.04,0.1,0.09,0.19,0.15,0.3c0.06,0.11,0.12,0.21,0.18,0.32c0.06,0.1,0.12,0.19,0.19,0.28c0.01,0.01,0.01,0.02,0.02,0.03 c0.45,0.61,1.03,1.08,1.71,1.28c0.09,0.03,0.18,0.05,0.28,0.07c0.85,0.1,1.41-0.1,1.86-0.3c0.06-0.03,0.11-0.05,0.17-0.08 c0.24-0.12,0.48-0.27,0.69-0.42c0.16-0.12,0.29-0.24,0.39-0.35L48.94,80.91z M20.46,72.75L20.46,72.75 M47.83,60.34 c0.24-0.27,0.49-0.56,0.75-0.86L47.83,60.34z"></path> <path class="st0" d="M87.01,54.07c-2.02-4.49-4.83-8.55-8.21-11.87c-1.69-1.67-3.52-3.15-5.46-4.42c-1.94-1.28-3.99-2.35-6.12-3.19 c-2.13-0.83-4.34-1.43-6.58-1.78c-2.24-0.35-4.51-0.44-6.78-0.28c-2.26,0.17-4.51,0.58-6.7,1.21c-2.19,0.65-4.33,1.51-6.39,2.6 c-2.05,1.09-4.01,2.39-5.86,3.87c-1.85,1.47-3.58,3.13-5.17,4.96c-3.16,3.65-5.82,7.87-7.71,12.5c-1.45,3.49-2.48,7.2-3.06,10.99 h1.36c0.23-1.13,0.49-2.24,0.81-3.34c0.32-1.17,0.7-2.31,1.1-3.45c0.42-1.12,0.86-2.24,1.36-3.32c0.98-2.17,2.13-4.23,3.41-6.18 c1.29-1.94,2.7-3.77,4.25-5.44c3.07-3.36,6.66-6.08,10.53-8.03c1.93-0.98,3.94-1.79,5.99-2.38c2.05-0.61,4.14-1.02,6.25-1.2 c2.11-0.2,4.23-0.17,6.34,0.06c2.11,0.23,4.21,0.67,6.25,1.35c2.05,0.67,4.04,1.56,5.94,2.67c1.9,1.12,3.72,2.44,5.4,3.96 c3.36,3.06,6.2,6.87,8.32,11.17c1.06,2.15,1.94,4.42,2.63,6.77c0.09,0.29,0.17,0.58,0.25,0.88h0.57 C89.09,59.36,88.18,56.64,87.01,54.07z"></path> <path class="st0" d="M27.91,106.16l1.08-0.88c-2.61-3.44-4.69-7.28-6.24-11.34c-1.54-4.02-2.49-8.25-2.98-12.54l-0.82-0.41 c0.37,4.52,1.26,9.02,2.79,13.32C23.22,98.52,25.28,102.53,27.91,106.16z"></path> <path class="st0" d="M85.56,90.62c-0.88,3.11-2.06,6.14-3.55,9.01c-2.03,3.9-4.65,7.5-7.82,10.53c-3.17,3.02-6.88,5.5-10.99,7.01 c-4.09,1.53-8.54,2.13-12.9,1.67c-4.37-0.45-8.62-1.96-12.39-4.26c-0.58-0.35-1.14-0.73-1.69-1.11l-1.33,1.08 c0.69,0.52,1.39,1.02,2.11,1.48c3.91,2.52,8.4,4.24,13.07,4.83c4.66,0.61,9.48,0.07,13.93-1.48c4.47-1.54,8.53-4.11,12.01-7.28 c3.48-3.17,6.36-6.96,8.62-11.06c2.15-3.89,3.74-8.08,4.8-12.4L85.56,90.62z"></path> <g> <path class="st0" d="M70.18,62.31c3.08,0,6.34,0.42,9.29,1.47l0.5-0.77c-3.03-0.96-6.3-1.5-9.45-1.5c-5.38,0-10.28,0.91-14.6,2.4 c-0.29,0.4-0.58,0.8-0.87,1.21c0.01,0,0.02-0.01,0.03-0.01C59.5,63.38,64.59,62.31,70.18,62.31z"></path> <path class="st0" d="M84.56,65.02l-0.93,0.81c2.48,1.93,3.43,4.21,3.43,7.61c0,5.36-3.82,13.28-10.45,13.28 c-3.55,0-4.15-1.74-4.49-1.74c-0.19,0.17-0.31,0.25-0.47,0.47c0,0.27,2.01,2.35,5.96,2.35c6.7,0,13.2-5.63,13.2-12.54 C90.81,71.08,88.01,67.19,84.56,65.02z"></path> <path class="st0" d="M64.75,67.49c-2.21,9.66-14.07,22.8-22.31,22.8c-3.95,0-5.7-1.94-5.7-5.9c0-2.29,1.1-4.77,2.21-6.71 c1.04-1.81,2.26-3.23,3.59-4.79c0.25-0.64,0.54-1.26,0.86-1.86c-4.78,4.25-7.47,9.24-7.47,13.5c0,5.3,3.75,6.84,7.77,6.84 c13.94,0,21.84-19.58,21.84-24.27C65.08,67.3,65.18,67.23,64.75,67.49z"></path> <path class="st0" d="M85.28,61.43c-7.53,4.37-13.84,10.64-18.45,18.03c-3.54,5.68-6.01,12-9.9,17.44 c-1.55,2.17-3.36,4.17-5.44,5.85c-2.18,1.76-4.74,3.25-7.53,3.86c-2.6,0.56-5.68,0.48-7.61-1.57c-0.91-0.96-1.42-2.24-1.41-3.57 c0,0,0.01-0.7,0.24-1.24h-0.71c-0.22,0.58-0.28,1.18-0.28,1.18c-0.2,1.98,0.75,4.03,2.39,5.16c3.4,2.33,8.04,1.35,11.56-0.12 c6.25-2.6,11.18-7.65,15.07-13.2s6.86-11.66,10.37-17.44c3.23-5.32,7-10.46,11.96-14.19L85.28,61.43z"></path> </g> </svg> 